#!OML:ASF I:\golf\golf\golf 2\Subject 1\2002-09-07\Subject1.ASF
:FULLY-SPECIFIED
:DEGREES
367
root -8.75232 17.8536 5.091 -11.62 79.0413 -29.0231
lowerback 7.072 0.911022 -2.52862
upperback 8.88492 1.36716 3.73933
thorax 5.17443 0.550667 5.31775
lowerneck -11.193 1.00472 3.2466
upperneck 41.1908 6.08105 -7.66237
head 17.3583 2.55081 -2.8634
rclavicle -1.49089e-014 -2.74323e-014
rhumerus -16.4502 43.3093 -92.7983
rradius 64.075
rwrist -57.0967
rhand -38.2133 -20.314
rfingers 7.12502
rthumb -11.245 -49.9926
lclavicle -1.49089e-014 -2.74323e-014
lhumerus -17.2524 -48.6451 104.534
lradius 65.8267
lwrist 64.7899
lhand -9.45594 64.0488
lfingers 7.12502
lthumb -163.492 86.6334
rfemur -37.9569 0.941498 20.0933
rtibia 31.0844
rfoot -6.41158 0.185562
rtoes 4.12141
lfemur -36.36 9.8088 -13.6867
ltibia 33.3996
lfoot -11.5592 -4.59623
ltoes -7.33291
368
root -8.75318 17.8549 5.089 -11.6656 79.1118 -29.0345
lowerback 7.12461 0.941079 -2.55526
upperback 8.88751 1.40658 3.76025
thorax 5.14286 0.569441 5.35271
lowerneck -11.1839 0.979672 3.24887
upperneck 41.2051 6.03504 -7.63179
head 17.3577 2.53808 -2.85781
rclavicle 2.71341e-014 1.39149e-014
rhumerus -16.4151 43.2331 -92.7998
rradius 64.013
rwrist -57.0954
rhand -38.1358 -20.1734
rfingers 7.12502
rthumb -11.1703 -49.8561
lclavicle 2.71341e-014 1.39149e-014
lhumerus -17.285 -48.7052 104.597
lradius 65.7878
lwrist 64.6967
lhand -9.57741 64.3088
lfingers 7.12502
lthumb -163.609 86.3637
rfemur -37.924 0.91031 20.0442
rtibia 31.0987
rfoot -6.41931 0.143339
rtoes 4.22193
lfemur -36.3227 9.78652 -13.7341
ltibia 33.342
lfoot -11.5787 -4.63388
ltoes -7.74708
369
root -8.75419 17.8565 5.08543 -11.7989 79.2537 -29.1026
lowerback 7.23832 0.930599 -2.53285
upperback 8.88878 1.39457 3.75449
thorax 5.08229 0.567311 5.33147
lowerneck -11.1689 0.976459 3.28538
upperneck 41.2072 6.01224 -7.60853
head 17.3523 2.53858 -2.85765
rclavicle -1.48095e-014 -3.97569e-016
rhumerus -16.4233 43.2064 -92.868
rradius 63.993
rwrist -57.1357
rhand -38.2368 -20.0773
rfingers 7.12502
rthumb -11.2676 -49.7546
lclavicle -1.48095e-014 -3.97569e-016
lhumerus -17.3532 -48.6959 104.611
lradius 65.7951
lwrist 64.6428
lhand -9.68796 64.3363
lfingers 7.12502
lthumb -163.716 86.3275
rfemur -37.8469 0.770708 20.0057
rtibia 31.1056
rfoot -6.40085 0.137039
rtoes 4.09571
lfemur -36.2421 9.49382 -13.7231
ltibia 33.2851
lfoot -11.539 -4.48682
ltoes -7.90448
370
root -8.75557 17.8583 5.08271 -11.735 79.3704 -28.9913
lowerback 7.31256 0.914974 -2.57152
upperback 8.89671 1.37348 3.75745
thorax 5.05145 0.555777 5.35587
lowerneck -11.1859 0.974431 3.31581
upperneck 41.2112 6.01537 -7.64084
head 17.3622 2.54076 -2.8777
rclavicle -4.17448e-015 -8.15017e-015
rhumerus -16.4249 43.2717 -92.8939
rradius 64.0055
rwrist -57.1438
rhand -38.3416 -20.0717
rfingers 7.12502
rthumb -11.3687 -49.7435
lclavicle -4.17448e-015 -8.15017e-015
lhumerus -17.4126 -48.6237 104.607
lradius 65.8454
lwrist 64.5842
lhand -9.49696 64.1938
lfingers 7.12502
lthumb -163.532 86.4851
rfemur -37.7971 0.681747 19.9311
rtibia 31.1064
rfoot -6.38049 0.114411
rtoes 4.29532
lfemur -36.1801 9.29118 -13.7539
ltibia 33.2349
lfoot -11.459 -4.41513
ltoes -7.68786
371
root -8.75634 17.8586 5.0797 -11.6497 79.4519 -28.9021
lowerback 7.2921 0.908511 -2.60818
upperback 8.91658 1.36465 3.77829
thorax 5.08485 0.547952 5.40046
lowerneck -11.2222 0.95895 3.30211
upperneck 41.2232 6.0047 -7.65739
head 17.3782 2.53198 -2.8849
rclavicle -2.10712e-014 -3.3197e-014
rhumerus -16.3787 43.3876 -92.8246
rradius 64.039
rwrist -57.1476
rhand -38.2522 -20.2199
rfingers 7.12502
rthumb -11.2825 -49.8964
lclavicle -2.10712e-014 -3.3197e-014
lhumerus -17.4096 -48.5674 104.593
lradius 65.8721
lwrist 64.5369
lhand -8.85135 63.977
lfingers 7.12502
lthumb -162.91 86.7547
rfemur -37.7931 0.610019 19.8815
rtibia 31.1061
rfoot -6.40343 0.0691514
rtoes 4.41319
lfemur -36.1673 9.19915 -13.8003
ltibia 33.2004
lfoot -11.4382 -4.41006
ltoes -7.53428
372
root -8.75737 17.8574 5.07644 -11.7566 79.5163 -29.0162
lowerback 7.27937 0.894785 -2.61241
upperback 8.92529 1.34652 3.81767
thorax 5.10305 0.537201 5.44607
lowerneck -11.2103 0.946526 3.23778
upperneck 41.1776 5.99544 -7.65733
head 17.3458 2.51827 -2.87261
rclavicle -5.1684e-015 2.36554e-014
rhumerus -16.3851 43.463 -92.7809
rradius 64.0351
rwrist -57.0539
rhand -38.0149 -20.3649
rfingers 7.12502
rthumb -11.0537 -50.0539
lclavicle -5.1684e-015 2.36554e-014
lhumerus -17.3956 -48.456 104.595
lradius 65.8931
lwrist 64.5978
lhand -8.23057 63.7825
lfingers 7.12502
lthumb -162.313 87.0019
rfemur -37.7986 0.501911 19.8952
rtibia 31.1059
rfoot -6.42524 0.0675242
rtoes 4.42657
lfemur -36.1844 9.14319 -13.8177
ltibia 33.1866
lfoot -11.4525 -4.407
ltoes -7.43937
373
root -8.75868 17.8575 5.07654 -11.8558 79.4994 -29.116
lowerback 7.29393 0.914684 -2.64518
upperback 8.91962 1.37096 3.86123
thorax 5.08523 0.546726 5.50977
lowerneck -11.1411 0.932521 3.15262
upperneck 41.1126 5.98038 -7.63692
head 17.2848 2.50317 -2.84736
rclavicle 2.10712e-014 1.51076e-014
rhumerus -16.424 43.4156 -92.8403
rradius 63.9277
rwrist -56.9045
rhand -37.8891 -20.4343
rfingers 7.12502
rthumb -10.9323 -50.1297
lclavicle 2.10712e-014 1.51076e-014
lhumerus -17.5055 -48.4244 104.701
lradius 65.9893
lwrist 65.0705
lhand -9.99031 64.149
lfingers 7.12502
lthumb -164.007 86.4912
rfemur -37.7942 0.491885 19.9253
rtibia 31.0961
rfoot -6.40859 0.107507
rtoes 4.65683
lfemur -36.1957 9.18836 -13.8062
ltibia 33.1918
lfoot -11.4631 -4.42986
ltoes -7.43627
374
root -8.75883 17.8571 5.07507 -12.1086 79.5146 -29.3869
lowerback 7.28617 0.948328 -2.54091
upperback 8.9043 1.41897 3.85391
thorax 5.06834 0.577578 5.44046
lowerneck -11.0249 0.917276 3.14222
upperneck 41.0366 5.92405 -7.57336
head 17.2008 2.48979 -2.82281
rclavicle 2.78299e-014 -4.47266e-014
rhumerus -16.4762 43.2955 -92.9731
rradius 63.8806
rwrist -56.9465
rhand -38.0527 -20.5927
rfingers 7.12502
rthumb -11.0901 -50.2796
lclavicle 2.78299e-014 -4.47266e-014
lhumerus -17.8017 -48.7754 104.909
lradius 66.1923
lwrist 66.2616
lhand -9.5518 64.2921
lfingers 7.12502
lthumb -163.585 86.3825
rfemur -37.7904 0.462733 19.9747
rtibia 31.0767
rfoot -6.42385 0.123216
rtoes 4.29507
lfemur -36.2233 9.13213 -13.7484
ltibia 33.2063
lfoot -11.4706 -4.40894
ltoes -7.65595
375
root -8.75869 17.857 5.07009 -12.52 79.6251 -29.846
lowerback 7.24976 0.948355 -2.33392
upperback 8.88162 1.4264 3.81454
thorax 5.06576 0.594728 5.28049
lowerneck -10.9204 0.913399 3.21763
upperneck 40.9379 5.87259 -7.55173
head 17.1128 2.48558 -2.8319
rclavicle 1.27222e-014 8.74653e-015
rhumerus -16.5731 43.2265 -93.0974
rradius 63.9683
rwrist -57.0949
rhand -38.1425 -20.6592
rfingers 7.12502
rthumb -11.1768 -50.3415
lclavicle 1.27222e-014 8.74653e-015
lhumerus -17.8278 -48.8229 104.879
lradius 66.1171
lwrist 65.9182
lhand -8.06743 64.1007
lfingers 7.12502
lthumb -162.156 86.698
rfemur -37.8047 0.374724 20.0074
rtibia 31.0458
rfoot -6.42087 0.0705555
rtoes 3.80861
lfemur -36.2991 8.98135 -13.7043
ltibia 33.2136
lfoot -11.4643 -4.38563
ltoes -7.85831
376
root -8.75934 17.8574 5.06699 -12.8646 79.7016 -30.2438
lowerback 7.21457 0.945534 -2.25155
upperback 8.86241 1.4248 3.82787
thorax 5.06552 0.598339 5.24806
lowerneck -10.911 0.903249 3.23425
upperneck 40.9122 5.84704 -7.54843
head 17.0934 2.47868 -2.83667
rclavicle 3.65764e-014 2.18663e-014
rhumerus -16.5966 43.2344 -93.1384
rradius 63.9598
rwrist -57.1114
rhand -37.8849 -20.5077
rfingers 7.12502
rthumb -10.9283 -50.2033
lclavicle 3.65764e-014 2.18663e-014
lhumerus -17.7654 -48.7336 104.831
lradius 65.9926
lwrist 65.5071
lhand -8.28048 64.1793
lfingers 7.12502
lthumb -162.361 86.6008
rfemur -37.84 0.354913 20.0229
rtibia 31.0239
rfoot -6.38743 -0.00854441
rtoes 3.82585
lfemur -36.3741 8.91511 -13.6739
ltibia 33.2049
lfoot -11.4263 -4.43267
ltoes -7.61459
377
root -8.76014 17.8584 5.06567 -13.1766 79.7319 -30.5798
lowerback 7.2155 0.939156 -2.28317
upperback 8.84696 1.4138 3.90622
thorax 5.04831 0.589194 5.34924
lowerneck -10.9453 0.906927 3.13676
upperneck 40.9533 5.8817 -7.52774
head 17.1253 2.48081 -2.80433
rclavicle -1.98785e-016 -2.56432e-014
rhumerus -16.5251 43.3316 -93.135
rradius 63.776
rwrist -56.9696
rhand -37.5112 -20.3681
rfingers 7.12502
rthumb -10.5678 -50.0824
lclavicle -1.98785e-016 -2.56432e-014
lhumerus -17.737 -48.4769 104.855
lradius 65.9382
lwrist 65.1954
lhand -10.6534 64.4426
lfingers 7.12502
lthumb -164.646 86.1475
rfemur -37.8659 0.32372 20.0631
rtibia 31.0288
rfoot -6.3851 -0.00815323
rtoes 3.86882
lfemur -36.3983 8.89902 -13.6367
ltibia 33.1798
lfoot -11.3819 -4.49456
ltoes -7.31917
